<svg width="78" height="78" viewBox="0 0 78 78" fill="none" xmlns="http://www.w3.org/2000/svg">
<rect width="78" height="78" rx="5.2" fill="#222222"/>
<path d="M55.9008 35.2004L66.3008 24.7589V53.6174L55.9008 43.1759V54.9291C55.9008 57.8149 53.5608 60.1761 50.7008 60.1761H19.5008C16.6408 60.1761 14.3008 57.8149 14.3008 54.9291V23.4472C14.3008 20.5613 16.6408 18.2002 19.5008 18.2002H50.7008C53.5608 18.2002 55.9008 20.5613 55.9008 23.4472V35.2004ZM50.7008 33.1279V23.4472H19.5008V54.9291H50.7008V33.1279ZM35.1008 39.1881C32.2408 39.1881 29.9008 36.827 29.9008 33.9412C29.9008 31.0553 32.2408 28.6942 35.1008 28.6942C37.9608 28.6942 40.3008 31.0553 40.3008 33.9412C40.3008 36.827 37.9608 39.1881 35.1008 39.1881ZM35.1008 41.8116C38.5848 41.8116 45.5008 43.5694 45.5008 47.0586V49.6821H24.7008V47.0586C24.7008 43.5694 31.6168 41.8116 35.1008 41.8116Z" fill="white"/>
</svg>
