<svg width="28" height="28" viewBox="0 0 28 28" fill="none" xmlns="http://www.w3.org/2000/svg">
<path d="M13.9987 8.16667V3.5H2.33203V24.5H25.6654V8.16667H13.9987ZM6.9987 22.1667H4.66536V19.8333H6.9987V22.1667ZM6.9987 17.5H4.66536V15.1667H6.9987V17.5ZM6.9987 12.8333H4.66536V10.5H6.9987V12.8333ZM6.9987 8.16667H4.66536V5.83333H6.9987V8.16667ZM11.6654 22.1667H9.33203V19.8333H11.6654V22.1667ZM11.6654 17.5H9.33203V15.1667H11.6654V17.5ZM11.6654 12.8333H9.33203V10.5H11.6654V12.8333ZM11.6654 8.16667H9.33203V5.83333H11.6654V8.16667ZM23.332 22.1667H13.9987V19.8333H16.332V17.5H13.9987V15.1667H16.332V12.8333H13.9987V10.5H23.332V22.1667ZM20.9987 12.8333H18.6654V15.1667H20.9987V12.8333ZM20.9987 17.5H18.6654V19.8333H20.9987V17.5Z" fill="#222222"/>
</svg>
