<svg width="18" height="24" viewBox="0 0 18 24" fill="none" xmlns="http://www.w3.org/2000/svg">
<g clip-path="url(#clip0_452_513)">
<path d="M9 0C4.02429 0 0 3.756 0 8.4C0 14.7 9 24 9 24C9 24 18 14.7 18 8.4C18 3.756 13.9757 0 9 0ZM2.57143 8.4C2.57143 5.088 5.45143 2.4 9 2.4C12.5486 2.4 15.4286 5.088 15.4286 8.4C15.4286 11.856 11.7257 17.028 9 20.256C6.32571 17.052 2.57143 11.82 2.57143 8.4Z" fill="black"/>
<path d="M9 11.5381C10.6569 11.5381 12 10.1949 12 8.53809C12 6.88123 10.6569 5.53809 9 5.53809C7.34315 5.53809 6 6.88123 6 8.53809C6 10.1949 7.34315 11.5381 9 11.5381Z" fill="black"/>
</g>
<defs>
<clipPath id="clip0_452_513">
<rect width="18" height="24" fill="white"/>
</clipPath>
</defs>
</svg>
