<svg width="48" height="48" viewBox="0 0 48 48" fill="none" xmlns="http://www.w3.org/2000/svg">
<g clip-path="url(#clip0_555_787)">
<mask id="mask0_555_787" style="mask-type:luminance" maskUnits="userSpaceOnUse" x="0" y="0" width="48" height="48">
<path d="M48 0H0V48H48V0Z" fill="white"/>
</mask>
<g mask="url(#mask0_555_787)">
<path d="M48 0H0V48H48V0Z" fill="white"/>
<path fill-rule="evenodd" clip-rule="evenodd" d="M24.0003 10.667C16.6403 10.667 10.667 16.6403 10.667 24.0003C10.667 31.3603 16.6403 37.3337 24.0003 37.3337C31.3603 37.3337 37.3337 31.3603 37.3337 24.0003C37.3337 16.6403 31.3603 10.667 24.0003 10.667ZM32.4803 30.4403C30.5737 28.1203 25.947 27.3337 24.0003 27.3337C22.0537 27.3337 17.427 28.1203 15.5203 30.4403C14.1603 28.6537 13.3337 26.427 13.3337 24.0003C13.3337 18.1203 18.1203 13.3337 24.0003 13.3337C29.8803 13.3337 34.667 18.1203 34.667 24.0003C34.667 26.427 33.8403 28.6537 32.4803 30.4403ZM19.3337 20.667C19.3337 18.0803 21.4137 16.0003 24.0003 16.0003C26.587 16.0003 28.667 18.0803 28.667 20.667C28.667 23.2537 26.587 25.3337 24.0003 25.3337C21.4137 25.3337 19.3337 23.2537 19.3337 20.667Z" fill="#2A2A2A"/>
</g>
</g>
<defs>
<clipPath id="clip0_555_787">
<rect width="48" height="48" fill="white"/>
</clipPath>
</defs>
</svg>
