<svg width="28" height="28" viewBox="0 0 28 28" fill="none" xmlns="http://www.w3.org/2000/svg">
<g clip-path="url(#clip0_451_461)">
<path d="M21.5 18.257C20.6133 18.257 19.82 18.6034 19.2133 19.1461L10.895 14.3544C10.9533 14.0889 11 13.8233 11 13.5462C11 13.2691 10.9533 13.0035 10.895 12.738L19.12 7.99247C19.75 8.56978 20.5783 8.92771 21.5 8.92771C23.4367 8.92771 25 7.38052 25 5.46386C25 3.54719 23.4367 2 21.5 2C19.5633 2 18 3.54719 18 5.46386C18 5.74096 18.0467 6.00653 18.105 6.27209L9.88 11.0176C9.25 10.4403 8.42167 10.0823 7.5 10.0823C5.56333 10.0823 4 11.6295 4 13.5462C4 15.4629 5.56333 17.01 7.5 17.01C8.42167 17.01 9.25 16.6521 9.88 16.0748L18.1867 20.878C18.1283 21.1205 18.0933 21.3745 18.0933 21.6285C18.0933 23.4874 19.6217 25 21.5 25C23.3783 25 24.9067 23.4874 24.9067 21.6285C24.9067 19.7696 23.3783 18.257 21.5 18.257ZM21.5 4.30924C22.1417 4.30924 22.6667 4.82882 22.6667 5.46386C22.6667 6.0989 22.1417 6.61847 21.5 6.61847C20.8583 6.61847 20.3333 6.0989 20.3333 5.46386C20.3333 4.82882 20.8583 4.30924 21.5 4.30924ZM7.5 14.7008C6.85833 14.7008 6.33333 14.1812 6.33333 13.5462C6.33333 12.9111 6.85833 12.3916 7.5 12.3916C8.14167 12.3916 8.66667 12.9111 8.66667 13.5462C8.66667 14.1812 8.14167 14.7008 7.5 14.7008ZM21.5 22.8062C20.8583 22.8062 20.3333 22.2866 20.3333 21.6516C20.3333 21.0166 20.8583 20.497 21.5 20.497C22.1417 20.497 22.6667 21.0166 22.6667 21.6516C22.6667 22.2866 22.1417 22.8062 21.5 22.8062Z" fill="black"/>
</g>
<defs>
<clipPath id="clip0_451_461">
<rect width="28" height="28" fill="white"/>
</clipPath>
</defs>
</svg>
