<svg width="48" height="48" viewBox="0 0 48 48" fill="none" xmlns="http://www.w3.org/2000/svg">
<g clip-path="url(#clip0_303_501)">
<path d="M48 0H0V48H48V0Z" fill="white"/>
<path d="M25.3732 31.6145C25.3732 31.6145 25.8785 31.5593 26.1373 31.2865C26.3743 31.0364 26.366 30.5646 26.366 30.5646C26.366 30.5646 26.3345 28.3613 27.3767 28.036C28.4038 27.7161 29.7226 30.1667 31.1222 31.109C32.1795 31.8215 32.982 31.6655 32.982 31.6655L36.7221 31.6145C36.7221 31.6145 38.6777 31.4962 37.7505 29.9865C37.6738 29.8629 37.2096 28.8694 34.9705 26.8288C32.6246 24.6928 32.9395 25.0383 35.7634 21.3428C37.4835 19.0925 38.171 17.7187 37.956 17.1312C37.7519 16.5693 36.4865 16.7185 36.4865 16.7185L32.2767 16.7441C32.2767 16.7441 31.9645 16.7024 31.733 16.8382C31.5071 16.9712 31.3605 17.2818 31.3605 17.2818C31.3605 17.2818 30.695 19.0226 29.8062 20.504C27.9314 23.6281 27.1822 23.7935 26.8755 23.5999C26.162 23.1469 26.34 21.7824 26.34 20.8132C26.34 17.7845 26.8084 16.5223 25.4293 16.1956C24.9719 16.0867 24.635 16.0155 23.4641 16.0034C21.9618 15.9886 20.6909 16.0087 19.9706 16.3542C19.4912 16.5841 19.1215 17.0976 19.3474 17.1272C19.6255 17.1635 20.2554 17.2939 20.5896 17.7402C21.021 18.3169 21.0059 19.6101 21.0059 19.6101C21.0059 19.6101 21.2538 23.1751 20.4266 23.6174C19.8596 23.9212 19.0818 23.3014 17.4096 20.4664C16.5537 19.0145 15.9073 17.4095 15.9073 17.4095C15.9073 17.4095 15.7827 17.1097 15.5595 16.9484C15.2897 16.7535 14.9131 16.693 14.9131 16.693L10.9128 16.7185C10.9128 16.7185 10.3116 16.7347 10.0911 16.9914C9.89528 17.2186 10.0761 17.6904 10.0761 17.6904C10.0761 17.6904 13.2081 24.8837 16.755 28.5092C20.0075 31.8322 23.6997 31.6145 23.6997 31.6145H25.3732Z" fill="#222222"/>
</g>
<defs>
<clipPath id="clip0_303_501">
<rect width="48" height="48" fill="white"/>
</clipPath>
</defs>
</svg>
