<svg width="24" height="24" viewBox="0 0 24 24" fill="none" xmlns="http://www.w3.org/2000/svg">
<g clip-path="url(#clip0_329_433)">
<rect width="24" height="24" fill="#222222"/>
<path d="M12.0288 16.2496C12.1012 16.2496 12.1741 16.247 12.2441 16.2283C12.3219 16.2075 12.425 16.1682 12.4923 16.0973C12.5947 15.9892 12.5985 15.7919 12.5985 15.7652C12.5985 15.7631 12.5985 15.7611 12.5985 15.7591C12.5981 15.6978 12.5993 14.7344 13.0678 14.5881C13.5446 14.4396 14.1569 15.5774 14.8068 16.0149C15.0916 16.2069 15.3366 16.263 15.4921 16.2764C15.6106 16.2866 15.73 16.2725 15.8489 16.2708L17.3599 16.2502C17.3911 16.2498 17.4218 16.2488 17.4528 16.2449C17.6321 16.2221 18.2551 16.0978 17.8842 15.4938C17.8486 15.4363 17.633 14.9751 16.5934 14.0277C15.5043 13.0359 15.6505 13.1963 16.9616 11.4806C17.7602 10.4358 18.0794 9.79795 17.9795 9.52521C17.9109 9.33613 17.5834 9.32048 17.4083 9.32618C17.3341 9.3286 17.2601 9.33382 17.1859 9.33427L15.4817 9.34461C15.3892 9.34518 15.2955 9.33405 15.2043 9.34967C15.1667 9.35611 15.1264 9.36799 15.0903 9.38915C15.0321 9.42345 14.9852 9.48313 14.955 9.52945C14.9275 9.57176 14.9086 9.61828 14.8898 9.66515C14.8054 9.87588 14.5357 10.5244 14.1957 11.0911C13.3253 12.5416 12.9775 12.6184 12.835 12.5285C12.5038 12.3182 12.5864 11.6847 12.5864 11.2347C12.5864 9.82853 12.8039 9.24248 12.1636 9.09081C11.9512 9.04026 11.7948 9.00718 11.2512 9.00156C10.5537 8.9947 9.96363 9.00406 9.62919 9.16446C9.40665 9.27119 9.23497 9.5096 9.33989 9.52333C9.46896 9.54018 9.76144 9.60073 9.91658 9.80794C10.0717 10.0153 10.1025 10.4222 10.1085 10.5952C10.1104 10.6492 10.1118 10.7024 10.1145 10.7564C10.1316 11.0902 10.174 12.3586 9.84092 12.5366C9.57769 12.6777 9.21653 12.39 8.44019 11.0737C8.06975 10.4453 7.78384 9.75516 7.74676 9.66443C7.74395 9.65756 7.74129 9.65102 7.73816 9.64428C7.7227 9.61094 7.66801 9.50307 7.58118 9.44032C7.53721 9.40856 7.48713 9.38448 7.44065 9.36661C7.33751 9.32696 7.22553 9.32209 7.11504 9.3228L5.44425 9.33347C5.43062 9.33355 5.41709 9.33375 5.40349 9.33465C5.33743 9.33902 5.12797 9.36054 5.04231 9.4603C4.97633 9.53684 5.00242 9.67319 5.02171 9.74225C5.02974 9.77101 5.04103 9.798 5.05316 9.82528C5.22392 10.2093 6.5958 13.2333 8.13626 14.8078C9.48291 16.1837 10.9919 16.2522 11.3027 16.2509C11.342 16.2508 11.3802 16.2496 11.4195 16.2496H12.0288Z" fill="white"/>
</g>
<defs>
<clipPath id="clip0_329_433">
<rect width="24" height="24" rx="12" fill="white"/>
</clipPath>
</defs>
</svg>
