<svg width="120" height="21" viewBox="0 0 120 21" fill="none" xmlns="http://www.w3.org/2000/svg">
<g clip-path="url(#clip0_452_530)">
<mask id="mask0_452_530" style="mask-type:luminance" maskUnits="userSpaceOnUse" x="0" y="0" width="120" height="21">
<path d="M120 0H0V21H120V0Z" fill="white"/>
</mask>
<g mask="url(#mask0_452_530)">
<path d="M36 13.2222C36 14.8333 34.5974 16 32.6233 16H28V6H32.4675C34.3896 6 35.7402 7.11111 35.7402 8.66668C35.7402 9.72223 35.2207 10.3889 34.4416 10.7778C35.2727 11.1111 36 12 36 13.2222ZM30.0259 7.83335V10H32.4155C33.1428 10 33.6104 9.55555 33.6104 8.94446C33.6104 8.33334 33.0908 7.83335 32.4155 7.83335H30.0259ZM32.6233 14.1667C33.4026 14.1667 33.9741 13.6667 33.9741 12.9444C33.9741 12.2222 33.4546 11.7222 32.6233 11.7222H30.0259V14.1667H32.6233Z" fill="#222222"/>
<path d="M44.1465 16L40.7441 12.0335H40.1953V16H38V6H40.1953V9.85475H40.7441L44.0366 6H46.616L42.5 10.8045L47 16H44.1465Z" fill="#222222"/>
<path d="M47 11C47 8.09679 49.2917 6 52.4999 6C55.7083 6 58 8.09679 58 11C58 13.9032 55.7083 16 52.4999 16C49.2917 16 47 13.9032 47 11ZM55.5939 11C55.5939 9.17206 54.3333 7.93549 52.4999 7.93549C50.6665 7.93549 49.4061 9.17206 49.4061 11C49.4061 12.828 50.6665 14.0645 52.4999 14.0645C54.3333 14.0645 55.5939 12.828 55.5939 11Z" fill="#222222"/>
<path d="M66.7501 6H69V16H66.7501V11.9777H62.2499V16H60V6H62.2499V9.96649H66.7501V6Z" fill="#222222"/>
<path d="M73.4234 16V8.01118H70V6H79V8.01118H75.5766V16H73.4234Z" fill="#222222"/>
<path d="M89 10.4086V15.785H87.3269L86.8654 14.2796C86.3461 15.086 85.25 16 83.5768 16C81.4999 16 80 14.7097 80 12.9355C80 11.1613 81.4999 9.92474 84.5577 9.92474H86.8076C86.6924 8.68817 85.9999 7.82797 84.7307 7.82797C83.6923 7.82797 83.0001 8.36561 82.6539 8.95699L80.577 8.63442C81.0962 6.96775 82.8846 6 84.8462 6C87.3846 6 89 7.6129 89 10.4086ZM86.7499 11.5914H84.6153C82.8846 11.5914 82.3076 12.129 82.3076 12.828C82.3076 13.6344 83.0001 14.172 84.1538 14.172C85.6539 14.172 86.7499 13.1505 86.7499 11.5914Z" fill="#222222"/>
<path d="M97.1463 16L93.7439 12.0335H93.1951V16H91V6H93.1951V9.85475H93.7439L97.0364 6H99.6157L95.5 10.8045L100 16H97.1463Z" fill="#222222"/>
<path d="M103.423 16V8.01118H100V6H109V8.01118H105.577V16H103.423Z" fill="#222222"/>
<path d="M119.976 11.5914H112.253C112.467 13.0968 113.54 14.0645 115.149 14.0645C116.275 14.0645 117.134 13.5806 117.616 12.8817L119.601 13.2043C118.904 15.0323 117.026 16 114.988 16C112.092 16 110 13.9032 110 11C110 8.09679 112.092 6 114.988 6C117.884 6 119.976 8.09679 119.976 10.8925C120.03 11.1613 119.976 11.3764 119.976 11.5914ZM112.414 9.92474H117.724C117.348 8.74194 116.383 7.88172 115.042 7.88172C113.755 7.82797 112.735 8.68817 112.414 9.92474Z" fill="#222222"/>
<path d="M0 10.08C0 5.32825 0 2.95237 1.47618 1.47618C2.95237 0 5.32825 0 10.08 0H10.92C15.6718 0 18.0476 0 19.5238 1.47618C21 2.95237 21 5.32825 21 10.08V10.92C21 15.6718 21 18.0476 19.5238 19.5238C18.0476 21 15.6718 21 10.92 21H10.08C5.32825 21 2.95237 21 1.47618 19.5238C0 18.0476 0 15.6718 0 10.92V10.08Z" fill="#222222"/>
<path d="M11.6252 15C6.84194 15 4.11367 11.6216 4 6H6.39599C6.47469 10.1261 8.24105 11.8739 9.64016 12.2342V6H11.8963V9.55853C13.278 9.40538 14.7294 7.78378 15.2191 6H17.4752C17.0992 8.19821 15.5252 9.81981 14.4059 10.4865C15.5252 11.027 17.3179 12.4414 18 15H15.5165C14.9831 13.2883 13.654 11.964 11.8963 11.7838V15H11.6252Z" fill="white"/>
</g>
</g>
<defs>
<clipPath id="clip0_452_530">
<rect width="120" height="21" fill="white"/>
</clipPath>
</defs>
</svg>
