<svg width="48" height="48" viewBox="0 0 48 48" fill="none" xmlns="http://www.w3.org/2000/svg">
<g clip-path="url(#clip0_303_497)">
<path d="M48 0H0V48H48V0Z" fill="white"/>
<path d="M37.4149 17.1426C37.0929 15.9055 36.144 14.9314 34.9392 14.6008C32.7559 14 24 14 24 14C24 14 15.2441 14 13.0606 14.6008C11.8558 14.9314 10.907 15.9055 10.585 17.1426C10 19.3846 10 24.0625 10 24.0625C10 24.0625 10 28.7403 10.585 30.9824C10.907 32.2195 11.8558 33.1936 13.0606 33.5243C15.2441 34.125 24 34.125 24 34.125C24 34.125 32.7559 34.125 34.9392 33.5243C36.144 33.1936 37.0929 32.2195 37.4149 30.9824C38 28.7403 38 24.0625 38 24.0625C38 24.0625 38 19.3846 37.4149 17.1426Z" fill="#222222"/>
<path d="M20.9375 28.2188V19.4688L27.9375 23.8439L20.9375 28.2188Z" fill="white"/>
</g>
<defs>
<clipPath id="clip0_303_497">
<rect width="48" height="48" fill="white"/>
</clipPath>
</defs>
</svg>
