<svg width="20" height="12" viewBox="0 0 20 12" fill="none" xmlns="http://www.w3.org/2000/svg">
<path d="M0 7.11111H2.22222V4.88889H0V7.11111ZM0 11.5556H2.22222V9.33333H0V11.5556ZM0 2.66666H2.22222V0.444443H0V2.66666ZM4.44444 7.11111H20V4.88889H4.44444V7.11111ZM4.44444 11.5556H20V9.33333H4.44444V11.5556ZM4.44444 0.444443V2.66666H20V0.444443H4.44444ZM0 7.11111H2.22222V4.88889H0V7.11111ZM0 11.5556H2.22222V9.33333H0V11.5556ZM0 2.66666H2.22222V0.444443H0V2.66666ZM4.44444 7.11111H20V4.88889H4.44444V7.11111ZM4.44444 11.5556H20V9.33333H4.44444V11.5556ZM4.44444 0.444443V2.66666H20V0.444443H4.44444Z" fill="#222222"/>
</svg>
