<svg width="20" height="20" viewBox="0 0 20 20" fill="none" xmlns="http://www.w3.org/2000/svg">
<path d="M13.1131 2.96257L13.3451 3.04377L13.5743 2.95493L19.3333 0.722494V17.2752L13.3375 19.2951L6.8869 17.0374L6.6549 16.9562L6.42571 17.0451L0.666667 19.2775V2.72476L6.66253 0.704873L13.1131 2.96257ZM7.99801 2.11521L7.11111 1.80479V2.74444V15.7V16.173L7.55754 16.3292L12.002 17.8848L12.8889 18.1952V17.2556V4.3V3.82701L12.4425 3.67076L7.99801 2.11521ZM2.00951 3.21262L1.55556 3.36545V3.84444V17.0111V17.9837L2.46265 17.6329L5.79599 16.344L6.22222 16.1792V15.7222V2.72222V1.79434L5.34284 2.0904L2.00951 3.21262ZM17.9905 16.7874L18.4444 16.6345V16.1556V3V2.02745L17.5373 2.3782L14.204 3.66709L13.7778 3.8319V4.28889V17.2778V18.2057L14.6572 17.9096L17.9905 16.7874Z" fill="white" stroke="#222222" stroke-width="1.33333"/>
</svg>
